<?xml version="1.0" encoding="UTF-8" standalone="no"?>
<!DOCTYPE svg PUBLIC "-//W3C//DTD SVG 1.1//EN" "http://www.w3.org/Graphics/SVG/1.1/DTD/svg11.dtd">
<svg width="100%" height="100%" viewBox="0 0 72 72" version="1.1" xmlns="http://www.w3.org/2000/svg" xmlns:xlink="http://www.w3.org/1999/xlink" xml:space="preserve" xmlns:serif="http://www.serif.com/" style="fill-rule:evenodd;clip-rule:evenodd;stroke-linejoin:round;stroke-miterlimit:2;">
    <g transform="matrix(1.5,0,0,1.5,0,0)">
        <path d="M23.999,34C24.466,34 24.858,33.842 25.175,33.526C25.492,33.21 25.65,32.818 25.65,32.351C25.65,31.884 25.492,31.492 25.176,31.175C24.86,30.858 24.468,30.7 24.001,30.7C23.534,30.7 23.142,30.858 22.825,31.174C22.508,31.49 22.35,31.882 22.35,32.349C22.35,32.816 22.508,33.208 22.824,33.525C23.14,33.842 23.532,34 23.999,34ZM22.65,26.35L25.65,26.35L25.65,13.7L22.65,13.7L22.65,26.35ZM24.013,44C21.256,44 18.664,43.475 16.238,42.425C13.813,41.375 11.692,39.942 9.875,38.125C8.058,36.308 6.625,34.186 5.575,31.758C4.525,29.33 4,26.736 4,23.975C4,21.214 4.525,18.62 5.575,16.192C6.625,13.764 8.058,11.65 9.875,9.85C11.692,8.05 13.814,6.625 16.242,5.575C18.67,4.525 21.264,4 24.025,4C26.786,4 29.38,4.525 31.808,5.575C34.236,6.625 36.35,8.05 38.15,9.85C39.95,11.65 41.375,13.767 42.425,16.2C43.475,18.633 44,21.229 44,23.987C44,26.744 43.475,29.336 42.425,31.762C41.375,34.187 39.95,36.305 38.15,38.116C36.35,39.926 34.233,41.36 31.8,42.416C29.367,43.472 26.771,44 24.013,44Z" style="fill-rule:nonzero;"/>
    </g>
</svg>
