<?xml version="1.0" encoding="UTF-8" standalone="no"?>
<!DOCTYPE svg PUBLIC "-//W3C//DTD SVG 1.1//EN" "http://www.w3.org/Graphics/SVG/1.1/DTD/svg11.dtd">
<svg width="100%" height="100%" viewBox="0 0 24 24" version="1.1" xmlns="http://www.w3.org/2000/svg" xmlns:xlink="http://www.w3.org/1999/xlink" xml:space="preserve" xmlns:serif="http://www.serif.com/" style="fill-rule:evenodd;clip-rule:evenodd;stroke-linejoin:round;stroke-miterlimit:2;">
    <g transform="matrix(0.5,0,0,0.5,0,0)">
        <path d="M20.9,31C21.733,31.833 22.783,32.225 24.05,32.175C25.317,32.125 26.233,31.667 26.8,30.8L37.85,14.15L21.2,25.2C20.333,25.8 19.858,26.708 19.775,27.925C19.692,29.142 20.067,30.167 20.9,31ZM9.6,40C9,40 8.433,39.858 7.9,39.575C7.367,39.292 6.967,38.883 6.7,38.35C5.833,36.75 5.167,35.083 4.7,33.35C4.233,31.617 4,29.85 4,28.05C4,25.283 4.525,22.683 5.575,20.25C6.625,17.817 8.05,15.692 9.85,13.875C11.65,12.058 13.758,10.625 16.175,9.575C18.592,8.525 21.167,8 23.9,8C26.667,8 29.275,8.525 31.725,9.575C34.175,10.625 36.308,12.058 38.125,13.875C39.942,15.692 41.375,17.817 42.425,20.25C43.475,22.683 44,25.283 44,28.05C44,29.85 43.783,31.625 43.35,33.375C42.917,35.125 42.25,36.783 41.35,38.35C41.05,38.883 40.633,39.292 40.1,39.575C39.567,39.858 39,40 38.4,40L9.6,40Z" style="fill-rule:nonzero;"/>
    </g>
</svg>
