<?xml version="1.0" encoding="UTF-8" standalone="no"?>
<!DOCTYPE svg PUBLIC "-//W3C//DTD SVG 1.1//EN" "http://www.w3.org/Graphics/SVG/1.1/DTD/svg11.dtd">
<svg width="100%" height="100%" viewBox="0 0 1800 1800" version="1.1" xmlns="http://www.w3.org/2000/svg" xmlns:xlink="http://www.w3.org/1999/xlink" xml:space="preserve" xmlns:serif="http://www.serif.com/" style="fill-rule:evenodd;clip-rule:evenodd;stroke-linejoin:round;stroke-miterlimit:2;">
    <g transform="matrix(3.12936,0,0,3.12936,98.8875,98.8875)">
        <path d="M107.6,471L74.6,100.6L437.4,100.6L404.4,470.8L255.7,512" style="fill-rule:nonzero;"/>
    </g>
    <g transform="matrix(3.12936,0,0,3.12936,98.8875,98.8875)">
        <path d="M256,480.5L256,131L404.3,131L376,447" style="fill:rgb(20,20,20);fill-rule:nonzero;"/>
    </g>
    <g transform="matrix(3.12936,0,0,3.12936,98.8875,98.8875)">
        <path d="M142,176.3L256,176.3L256,221.7L191.8,221.7L205.2,372.6L256,386.2L256,433.6L162.8,407.6" style="fill:rgb(235,235,235);fill-rule:nonzero;"/>
    </g>
    <g transform="matrix(3.12936,0,0,3.12936,98.8875,98.8875)">
        <path d="M369.6,176.3L255.8,176.3L255.8,221.7L320.055,221.7L306.5,372.6L255.8,386.2L255.8,433.4L348.8,407.6" style="fill:white;fill-rule:nonzero;"/>
    </g>
    <g transform="matrix(3.12936,0,0,3.12936,98.8875,98.8875)">
        <path d="M206,23L185.7,23L185.7,0L249.4,0L249.4,23L229,23L229,69L206,69M259.5,0L283.6,0L298.4,24.3L313.2,0L337.3,0L337.3,69L314.3,69L314.3,34.8L298.2,59.6L282.1,34.8L282.1,69L259.5,69M348.7,0L371.7,0L371.7,46.2L404.3,46.2L404.3,69L348.7,69M108.4,69L108.4,0L148.495,0C158.416,0 164.656,2.169 168.849,6.21C171.406,8.674 173.247,12.223 173.247,16.954L173.247,17.151C173.247,25.333 168.133,30.36 160.462,32.923C169.668,35.486 175.6,40.217 175.6,49.68L175.6,49.877C175.6,60.917 166.19,69 148.086,69L108.4,69ZM131.721,27.107L142.153,27.107C147.268,27.107 149.722,25.431 149.722,22.376L149.722,22.179C149.722,19.123 147.165,17.447 142.051,17.447L131.721,17.447L131.721,27.107ZM131.721,51.553L143.688,51.553C148.904,51.553 151.563,49.483 151.563,46.526L151.563,46.329C151.563,43.371 149.006,41.301 143.79,41.301L131.721,41.301L131.721,51.553Z" style="fill-rule:nonzero;"/>
    </g>
</svg>
