<?xml version="1.0" encoding="UTF-8" standalone="no"?>
<!DOCTYPE svg PUBLIC "-//W3C//DTD SVG 1.1//EN" "http://www.w3.org/Graphics/SVG/1.1/DTD/svg11.dtd">
<svg width="100%" height="100%" viewBox="0 0 1800 1800" version="1.1" xmlns="http://www.w3.org/2000/svg" xmlns:xlink="http://www.w3.org/1999/xlink" xml:space="preserve" xmlns:serif="http://www.serif.com/" style="fill-rule:evenodd;clip-rule:evenodd;stroke-linejoin:round;stroke-miterlimit:2;">
    <g transform="matrix(3.12936,0,0,3.12936,98.8875,98.8875)">
        <path d="M107.6,471L74.6,100.6L437.4,100.6L404.4,470.8L255.7,512" style="fill-rule:nonzero;"/>
    </g>
    <g transform="matrix(3.12936,0,0,3.12936,98.8875,98.8875)">
        <path d="M256,480.5L256,131L404.3,131L376,447" style="fill:rgb(20,20,20);fill-rule:nonzero;"/>
    </g>
    <g transform="matrix(3.12936,0,0,3.12936,98.8875,98.8875)">
        <path d="M142,176.3L256,176.3L256,221.7L191.8,221.7L205.2,372.6L256,386.2L256,433.6L162.8,407.6" style="fill:rgb(235,235,235);fill-rule:nonzero;"/>
    </g>
    <g transform="matrix(3.12936,0,0,3.12936,98.8875,98.8875)">
        <path d="M369.6,176.3L255.8,176.3L255.8,221.7L320.055,221.7L306.5,372.6L255.8,386.2L255.8,433.4L348.8,407.6" style="fill:white;fill-rule:nonzero;"/>
    </g>
    <g transform="matrix(1,0,0,1,58.4447,-1.13687e-13)">
        <path d="M437.424,314.837L437.424,159.97L373.873,159.97L373.873,98.887L573.164,98.887L573.164,159.97L509.613,159.97L509.613,314.837L437.424,314.837ZM604.94,314.837L604.94,98.887L680.214,98.887L726.489,174.778L772.764,98.887L848.038,98.887L848.038,314.837L776.158,314.837L776.158,207.787L726.489,284.604L725.255,284.604L675.587,207.787L675.587,314.837L604.94,314.837ZM888.143,314.837L888.143,98.887L960.332,98.887L960.332,253.137L1061.83,253.137L1061.83,314.837L888.143,314.837ZM1077.87,314.837L1150.99,205.011L1080.96,98.887L1163.02,98.887L1194.18,150.407L1225.64,98.887L1306.16,98.887L1236.13,204.086L1309.25,314.837L1227.19,314.837L1192.94,258.69L1158.39,314.837L1077.87,314.837Z"/>
    </g>
</svg>
