<?xml version="1.0" encoding="UTF-8" standalone="no"?>
<!DOCTYPE svg PUBLIC "-//W3C//DTD SVG 1.1//EN" "http://www.w3.org/Graphics/SVG/1.1/DTD/svg11.dtd">
<svg width="100%" height="100%" viewBox="0 0 384 384" version="1.1" xmlns="http://www.w3.org/2000/svg" xmlns:xlink="http://www.w3.org/1999/xlink" xml:space="preserve" xmlns:serif="http://www.serif.com/" style="fill-rule:evenodd;clip-rule:evenodd;stroke-linejoin:round;stroke-miterlimit:2;">
    <g transform="matrix(8.00001,0,0,8.00001,0,0)">
        <path d="M11,44C10.175,44 9.469,43.706 8.881,43.119C8.294,42.531 8,41.825 8,41L8,19.3C8,18.475 8.294,17.769 8.881,17.181C9.469,16.594 10.175,16.3 11,16.3L14.5,16.3L14.5,11.5C14.5,8.872 15.427,6.631 17.28,4.779C19.134,2.926 21.376,2 24.005,2C26.635,2 28.875,2.926 30.725,4.779C32.575,6.631 33.5,8.872 33.5,11.5L33.5,16.3L37,16.3C37.825,16.3 38.531,16.594 39.119,17.181C39.706,17.769 40,18.475 40,19.3L40,41C40,41.825 39.706,42.531 39.119,43.119C38.531,43.706 37.825,44 37,44L11,44ZM24.008,34C25.069,34 25.975,33.633 26.725,32.898C27.475,32.164 27.85,31.281 27.85,30.25C27.85,29.25 27.472,28.342 26.717,27.525C25.961,26.708 25.053,26.3 23.992,26.3C22.931,26.3 22.025,26.708 21.275,27.525C20.525,28.342 20.15,29.258 20.15,30.275C20.15,31.292 20.528,32.167 21.283,32.9C22.039,33.633 22.947,34 24.008,34ZM17.5,16.3L30.5,16.3L30.5,11.5C30.5,9.694 29.869,8.16 28.606,6.896C27.343,5.632 25.81,5 24.006,5C22.202,5 20.667,5.632 19.4,6.896C18.133,8.16 17.5,9.694 17.5,11.5L17.5,16.3Z" style="fill-rule:nonzero;"/>
    </g>
</svg>
