<?xml version="1.0" encoding="UTF-8" standalone="no"?>
<!DOCTYPE svg PUBLIC "-//W3C//DTD SVG 1.1//EN" "http://www.w3.org/Graphics/SVG/1.1/DTD/svg11.dtd">
<svg width="100%" height="100%" viewBox="0 0 288 288" version="1.1" xmlns="http://www.w3.org/2000/svg" xmlns:xlink="http://www.w3.org/1999/xlink" xml:space="preserve" xmlns:serif="http://www.serif.com/" style="fill-rule:evenodd;clip-rule:evenodd;stroke-linejoin:round;stroke-miterlimit:2;">
    <g transform="matrix(6,0,0,6,0,0)">
        <path d="M24.2,35.65C24.733,35.65 25.183,35.467 25.55,35.1C25.917,34.733 26.1,34.283 26.1,33.75C26.1,33.217 25.917,32.767 25.55,32.4C25.183,32.033 24.733,31.85 24.2,31.85C23.667,31.85 23.217,32.033 22.85,32.4C22.483,32.767 22.3,33.217 22.3,33.75C22.3,34.283 22.483,34.733 22.85,35.1C23.217,35.467 23.667,35.65 24.2,35.65ZM22.45,28.35L25.4,28.35C25.4,27.483 25.508,26.692 25.725,25.975C25.942,25.258 26.617,24.433 27.75,23.5C28.783,22.633 29.517,21.783 29.95,20.95C30.383,20.117 30.6,19.2 30.6,18.2C30.6,16.433 30.025,15.017 28.875,13.95C27.725,12.883 26.2,12.35 24.3,12.35C22.667,12.35 21.225,12.758 19.975,13.575C18.725,14.392 17.817,15.517 17.25,16.95L19.9,17.95C20.267,17.017 20.817,16.292 21.55,15.775C22.283,15.258 23.15,15 24.15,15C25.283,15 26.2,15.308 26.9,15.925C27.6,16.542 27.95,17.333 27.95,18.3C27.95,19.033 27.733,19.725 27.3,20.375C26.867,21.025 26.233,21.7 25.4,22.4C24.4,23.267 23.658,24.125 23.175,24.975C22.692,25.825 22.45,26.95 22.45,28.35ZM24,44C21.267,44 18.683,43.475 16.25,42.425C13.817,41.375 11.692,39.942 9.875,38.125C8.058,36.308 6.625,34.183 5.575,31.75C4.525,29.317 4,26.733 4,24C4,21.233 4.525,18.633 5.575,16.2C6.625,13.767 8.058,11.65 9.875,9.85C11.692,8.05 13.817,6.625 16.25,5.575C18.683,4.525 21.267,4 24,4C26.767,4 29.367,4.525 31.8,5.575C34.233,6.625 36.35,8.05 38.15,9.85C39.95,11.65 41.375,13.767 42.425,16.2C43.475,18.633 44,21.233 44,24C44,26.733 43.475,29.317 42.425,31.75C41.375,34.183 39.95,36.308 38.15,38.125C36.35,39.942 34.233,41.375 31.8,42.425C29.367,43.475 26.767,44 24,44Z" style="fill-rule:nonzero;"/>
    </g>
</svg>
