<?xml version="1.0" encoding="UTF-8" standalone="no"?>
<!DOCTYPE svg PUBLIC "-//W3C//DTD SVG 1.1//EN" "http://www.w3.org/Graphics/SVG/1.1/DTD/svg11.dtd">
<svg width="100%" height="100%" viewBox="0 0 96 96" version="1.1" xmlns="http://www.w3.org/2000/svg" xmlns:xlink="http://www.w3.org/1999/xlink" xml:space="preserve" xmlns:serif="http://www.serif.com/" style="fill-rule:evenodd;clip-rule:evenodd;stroke-linejoin:round;stroke-miterlimit:2;">
    <g transform="matrix(2,0,0,2,0,0)">
        <path d="M24,44C21.5,44 19.158,43.533 16.975,42.6C14.792,41.667 12.883,40.383 11.25,38.75C9.617,37.117 8.333,35.208 7.4,33.025C6.467,30.842 6,28.5 6,26L9,26C9,30.167 10.458,33.708 13.375,36.625C16.292,39.542 19.833,41 24,41C28.167,41 31.708,39.542 34.625,36.625C37.542,33.708 39,30.167 39,26C39,21.833 37.583,18.292 34.75,15.375C31.917,12.458 28.417,11 24.25,11L23.1,11L26.75,14.65L24.7,16.75L17.35,9.4L24.7,2.05L26.75,4.1L22.85,8L24,8C26.5,8 28.842,8.467 31.025,9.4C33.208,10.333 35.117,11.617 36.75,13.25C38.383,14.883 39.667,16.792 40.6,18.975C41.533,21.158 42,23.5 42,26C42,28.5 41.533,30.842 40.6,33.025C39.667,35.208 38.383,37.117 36.75,38.75C35.117,40.383 33.208,41.667 31.025,42.6C28.842,43.533 26.5,44 24,44Z" style="fill-rule:nonzero;"/>
    </g>
</svg>
