<?xml version="1.0" encoding="UTF-8" standalone="no"?>
<!DOCTYPE svg PUBLIC "-//W3C//DTD SVG 1.1//EN" "http://www.w3.org/Graphics/SVG/1.1/DTD/svg11.dtd">
<svg width="100%" height="100%" viewBox="0 0 96 96" version="1.1" xmlns="http://www.w3.org/2000/svg" xmlns:xlink="http://www.w3.org/1999/xlink" xml:space="preserve" xmlns:serif="http://www.serif.com/" style="fill-rule:evenodd;clip-rule:evenodd;stroke-linejoin:round;stroke-miterlimit:2;">
    <g transform="matrix(2,0,0,2,0,0)">
        <path d="M19.4,44L18.4,37.7C17.767,37.467 17.1,37.15 16.4,36.75C15.7,36.35 15.083,35.933 14.55,35.5L8.65,38.2L4,30L9.4,26.05C9.333,25.75 9.292,25.408 9.275,25.025C9.258,24.642 9.25,24.3 9.25,24C9.25,23.7 9.258,23.358 9.275,22.975C9.292,22.592 9.333,22.25 9.4,21.95L4,18L8.65,9.8L14.55,12.5C15.083,12.067 15.7,11.65 16.4,11.25C17.1,10.85 17.767,10.55 18.4,10.35L19.4,4L28.6,4L29.6,10.3C30.233,10.533 30.908,10.842 31.625,11.225C32.342,11.608 32.95,12.033 33.45,12.5L39.35,9.8L44,18L38.6,21.85C38.667,22.183 38.708,22.542 38.725,22.925C38.742,23.308 38.75,23.667 38.75,24C38.75,24.333 38.742,24.683 38.725,25.05C38.708,25.417 38.667,25.767 38.6,26.1L44,30L39.35,38.2L33.45,35.5C32.917,35.933 32.308,36.358 31.625,36.775C30.942,37.192 30.267,37.5 29.6,37.7L28.6,44L19.4,44ZM24,30.5C25.8,30.5 27.333,29.867 28.6,28.6C29.867,27.333 30.5,25.8 30.5,24C30.5,22.2 29.867,20.667 28.6,19.4C27.333,18.133 25.8,17.5 24,17.5C22.2,17.5 20.667,18.133 19.4,19.4C18.133,20.667 17.5,22.2 17.5,24C17.5,25.8 18.133,27.333 19.4,28.6C20.667,29.867 22.2,30.5 24,30.5Z" style="fill-rule:nonzero;"/>
    </g>
</svg>
