<?xml version="1.0" encoding="UTF-8" standalone="no"?>
<!DOCTYPE svg PUBLIC "-//W3C//DTD SVG 1.1//EN" "http://www.w3.org/Graphics/SVG/1.1/DTD/svg11.dtd">
<svg width="100%" height="100%" viewBox="0 0 20 20" version="1.1" xmlns="http://www.w3.org/2000/svg" xmlns:xlink="http://www.w3.org/1999/xlink" xml:space="preserve" xmlns:serif="http://www.serif.com/" style="fill-rule:evenodd;clip-rule:evenodd;stroke-linejoin:round;stroke-miterlimit:2;">
    <g transform="matrix(0.416667,0,0,0.416667,0,0)">
        <path d="M24,42C19.6,42 15.833,40.475 12.7,37.425C9.567,34.375 8,30.65 8,26.25C8,24.05 8.417,22.008 9.25,20.125C10.083,18.242 11.233,16.567 12.7,15.1L24,4L35.3,15.1C36.767,16.567 37.917,18.242 38.75,20.125C39.583,22.008 40,24.05 40,26.25C40,30.617 38.442,34.333 35.325,37.4C32.208,40.467 28.433,42 24,42ZM24,39L24,8.2L14.7,17.35C13.5,18.55 12.583,19.883 11.95,21.35C11.317,22.817 11,24.45 11,26.25C11,29.817 12.275,32.833 14.825,35.3C17.375,37.767 20.433,39 24,39Z" style="fill-rule:nonzero;"/>
    </g>
</svg>
